<svg xmlns="http://www.w3.org/2000/svg" width="15" height="15" viewBox="0 0 15 15" fill="none">
<path fill-rule="evenodd" clip-rule="evenodd" d="M13.0984 1.36971C12.6765 0.947897 12.1043 0.710937 11.5076 0.710938C10.911 0.710938 10.3388 0.947897 9.91689 1.36971L9.38664 1.90071L13.0991 5.61321L13.6286 5.08296C13.8376 4.87402 14.0034 4.62597 14.1165 4.35296C14.2296 4.07995 14.2878 3.78734 14.2878 3.49183C14.2878 3.19633 14.2296 2.90371 14.1165 2.63071C14.0034 2.3577 13.8376 2.10964 13.6286 1.90071L13.0984 1.36971ZM12.0379 6.67371L8.32539 2.96121L1.50789 9.77946C1.3587 9.92867 1.25449 10.1168 1.20714 10.3225L0.435391 13.6637C0.406636 13.7877 0.409934 13.9171 0.444976 14.0395C0.480018 14.1619 0.545649 14.2734 0.635686 14.3634C0.725722 14.4534 0.8372 14.5191 0.959614 14.5541C1.08203 14.5892 1.21135 14.5925 1.33539 14.5637L4.67739 13.7927C4.88275 13.7452 5.07063 13.641 5.21964 13.492L12.0379 6.67371Z" fill="#1A1A1A" fill-opacity="0.7"/>
</svg>