<svg width="15" height="13" viewBox="0 0 15 13" fill="none" xmlns="http://www.w3.org/2000/svg">
<path d="M11.5 0C11.6989 0 11.8897 0.0790178 12.0303 0.21967C12.171 0.360322 12.25 0.551088 12.25 0.75V10.0605L13.0907 9.21975C13.1604 9.15007 13.2431 9.09478 13.3341 9.05705C13.4251 9.01932 13.5226 8.99988 13.6211 8.99985C13.7196 8.99981 13.8172 9.01918 13.9082 9.05685C13.9992 9.09451 14.0819 9.14974 14.1516 9.21937C14.2213 9.28901 14.2766 9.37169 14.3143 9.46268C14.3521 9.55368 14.3715 9.65122 14.3715 9.74973C14.3716 9.84825 14.3522 9.9458 14.3145 10.0368C14.2769 10.1279 14.2216 10.2106 14.152 10.2803L12.0303 12.4012C11.8896 12.5419 11.6989 12.6208 11.5 12.6208C11.3011 12.6208 11.1104 12.5419 10.9697 12.4012L8.84875 10.2803C8.77712 10.2111 8.71998 10.1283 8.68067 10.0368C8.64137 9.9453 8.62068 9.84688 8.61981 9.7473C8.61895 9.64772 8.63792 9.54896 8.67563 9.45679C8.71334 9.36461 8.76903 9.28087 8.83945 9.21045C8.90987 9.14003 8.99361 9.08434 9.08578 9.04663C9.17796 9.00892 9.27672 8.98995 9.3763 8.99081C9.47589 8.99168 9.5743 9.01237 9.6658 9.05167C9.75731 9.09098 9.84007 9.14812 9.90925 9.21975L10.75 10.0605V0.75C10.75 0.551088 10.829 0.360322 10.9697 0.21967C11.1103 0.0790178 11.3011 0 11.5 0ZM6.25 10.5C6.44116 10.5002 6.62502 10.5734 6.76403 10.7046C6.90303 10.8359 6.98668 11.0152 6.99788 11.206C7.00908 11.3969 6.94699 11.5848 6.8243 11.7314C6.70161 11.878 6.52757 11.9722 6.33775 11.9948L6.25 12H1C0.80884 11.9998 0.624976 11.9266 0.485974 11.7954C0.346972 11.6641 0.263324 11.4848 0.252121 11.294C0.240918 11.1031 0.303006 10.9152 0.425699 10.7686C0.548391 10.622 0.722428 10.5278 0.91225 10.5052L1 10.5H6.25ZM7.75 5.25C7.94116 5.25021 8.12502 5.32341 8.26403 5.45464C8.40303 5.58586 8.48668 5.76521 8.49788 5.95605C8.50908 6.14688 8.44699 6.33478 8.3243 6.48137C8.20161 6.62796 8.02757 6.72217 7.83775 6.74475L7.75 6.75H1C0.80884 6.74979 0.624976 6.67659 0.485974 6.54536C0.346972 6.41414 0.263324 6.23479 0.252121 6.04395C0.240918 5.85312 0.303006 5.66522 0.425699 5.51863C0.548391 5.37204 0.722428 5.27783 0.91225 5.25525L1 5.25H7.75ZM7.75 0C7.94891 0 8.13968 0.0790178 8.28033 0.21967C8.42098 0.360322 8.5 0.551088 8.5 0.75C8.5 0.948912 8.42098 1.13968 8.28033 1.28033C8.13968 1.42098 7.94891 1.5 7.75 1.5H1C0.801088 1.5 0.610322 1.42098 0.46967 1.28033C0.329018 1.13968 0.25 0.948912 0.25 0.75C0.25 0.551088 0.329018 0.360322 0.46967 0.21967C0.610322 0.0790178 0.801088 0 1 0H7.75Z" fill="#1E2024"/>
</svg>
