<svg width="126" height="40" viewBox="0 0 126 40" fill="none" xmlns="http://www.w3.org/2000/svg">
<path d="M21.2846 7.67188C20.6467 7.67188 20.0209 7.71572 19.408 7.79507C19.1303 7.83102 19.1321 8.26572 19.4011 8.34317C23.8638 9.62778 27.1738 14.3584 27.1738 20.0007C27.1738 25.6429 23.8638 30.3735 19.4011 31.6581C19.1321 31.7356 19.1303 32.1703 19.408 32.2063C20.0209 32.2856 20.6467 32.3294 21.2846 32.3294C28.8841 32.3294 35.0411 26.807 35.0411 20.0007C35.0411 13.1943 28.8841 7.67188 21.2846 7.67188Z" fill="url(#paint0_linear_233_45)"/>
<path d="M17.1222 9.09961C17.6324 9.09961 18.1338 9.13054 18.6261 9.18807C18.9037 9.22051 18.9044 9.65566 18.6374 9.73839C14.7671 10.9378 11.9121 15.0768 11.9121 20.0056C11.9121 24.9345 14.7671 29.0735 18.6374 30.2729C18.9044 30.3556 18.9037 30.7908 18.6261 30.8232C18.1338 30.8808 17.6324 30.9117 17.1222 30.9117C10.4051 30.9117 4.95703 26.0288 4.95703 20.0056C4.95703 13.9825 10.4051 9.09961 17.1222 9.09961Z" fill="url(#paint1_linear_233_45)"/>
<path d="M18.9169 15.4108C19.283 14.3392 20.7636 14.3068 21.1978 15.3134L21.2345 15.4114L21.7286 16.8565C21.8419 17.1879 22.0249 17.4911 22.2653 17.7458C22.5057 18.0005 22.7979 18.2006 23.1223 18.3328L23.2552 18.3824L24.7002 18.8759C25.7718 19.2421 25.8042 20.7226 24.7982 21.1568L24.7002 21.1935L23.2552 21.6877C22.9236 21.8008 22.6202 21.9838 22.3655 22.2242C22.1107 22.4646 21.9104 22.7569 21.7782 23.0813L21.7286 23.2135L21.2351 24.6592C20.8689 25.7308 19.3884 25.7632 18.9548 24.7572L18.9169 24.6592L18.4233 23.2142C18.3102 22.8826 18.1272 22.5793 17.8868 22.3245C17.6464 22.0697 17.3541 21.8694 17.0297 21.7372L16.8974 21.6877L15.4524 21.1941C14.3802 20.828 14.3477 19.3474 15.3544 18.9139L15.4524 18.8759L16.8974 18.3824C17.2288 18.2691 17.5321 18.0861 17.7868 17.8457C18.0415 17.6053 18.2416 17.3131 18.3737 16.9887L18.4233 16.8565L18.9169 15.4108Z" fill="url(#paint2_linear_233_45)"/>
<path d="M61.22 23.1C60.8333 23.7267 60.4067 24.3 59.94 24.82C59.4733 25.3267 58.9467 25.76 58.36 26.12C57.7867 26.48 57.1467 26.76 56.44 26.96C55.7333 27.16 54.9533 27.26 54.1 27.26C53.0333 27.26 52.0333 27.06 51.1 26.66C50.1667 26.26 49.3467 25.72 48.64 25.04C47.9467 24.36 47.4 23.56 47 22.64C46.6 21.72 46.4 20.74 46.4 19.7C46.4 18.66 46.6 17.68 47 16.76C47.4 15.84 47.9467 15.04 48.64 14.36C49.3467 13.68 50.1667 13.14 51.1 12.74C52.0333 12.34 53.0333 12.14 54.1 12.14C54.98 12.14 55.7733 12.24 56.48 12.44C57.1867 12.64 57.8267 12.92 58.4 13.28C58.9733 13.64 59.4867 14.08 59.94 14.6C60.4067 15.1067 60.8333 15.6667 61.22 16.28C61.2867 16.3867 61.3 16.5 61.26 16.62C61.22 16.74 61.14 16.8267 61.02 16.88L58.18 18C58.0467 18.0533 57.9133 18.0533 57.78 18C57.6467 17.9467 57.5467 17.8667 57.48 17.76C57.0933 17.1467 56.6267 16.68 56.08 16.36C55.5333 16.0267 54.8733 15.86 54.1 15.86C53.5933 15.86 53.1133 15.9667 52.66 16.18C52.22 16.3933 51.8333 16.68 51.5 17.04C51.1667 17.3867 50.9067 17.7933 50.72 18.26C50.5333 18.7267 50.44 19.2067 50.44 19.7C50.44 20.2067 50.5333 20.6933 50.72 21.16C50.9067 21.6133 51.1667 22.0133 51.5 22.36C51.8333 22.7067 52.22 22.9867 52.66 23.2C53.1133 23.4133 53.5933 23.52 54.1 23.52C54.8333 23.52 55.4933 23.3467 56.08 23C56.68 22.64 57.1533 22.18 57.5 21.62C57.5667 21.5133 57.66 21.4333 57.78 21.38C57.9133 21.3267 58.0467 21.3267 58.18 21.38L61.02 22.5C61.14 22.5533 61.22 22.64 61.26 22.76C61.3 22.8667 61.2867 22.98 61.22 23.1ZM73.2445 23.8V26.52C73.2445 26.6533 73.1979 26.7667 73.1045 26.86C73.0112 26.9533 72.8979 27 72.7645 27H62.7845C62.6379 27 62.5179 26.9533 62.4245 26.86C62.3445 26.7667 62.3045 26.6533 62.3045 26.52V12.84C62.3045 12.7067 62.3445 12.5933 62.4245 12.5C62.5179 12.4067 62.6379 12.36 62.7845 12.36H65.7845C65.9179 12.36 66.0312 12.4067 66.1245 12.5C66.2179 12.5933 66.2645 12.7067 66.2645 12.84V22.84C66.2645 22.9733 66.3045 23.0867 66.3845 23.18C66.4779 23.2733 66.5979 23.32 66.7445 23.32H72.7645C72.8979 23.32 73.0112 23.3667 73.1045 23.46C73.1979 23.5533 73.2445 23.6667 73.2445 23.8ZM74.2292 12.86C74.2292 12.7267 74.2759 12.6133 74.3692 12.52C74.4626 12.4267 74.5759 12.38 74.7092 12.38H77.7292C77.8626 12.38 77.9759 12.4267 78.0692 12.52C78.1626 12.6133 78.2092 12.7267 78.2092 12.86V20.96C78.2092 21.48 78.2892 21.9133 78.4492 22.26C78.6226 22.5933 78.8292 22.86 79.0692 23.06C79.3226 23.2467 79.5892 23.38 79.8692 23.46C80.1492 23.54 80.4026 23.58 80.6292 23.58C80.8559 23.58 81.1092 23.54 81.3892 23.46C81.6692 23.38 81.9292 23.2467 82.1692 23.06C82.4092 22.86 82.6092 22.5933 82.7692 22.26C82.9426 21.9133 83.0292 21.48 83.0292 20.96V12.86C83.0292 12.7267 83.0759 12.6133 83.1692 12.52C83.2626 12.4267 83.3759 12.38 83.5092 12.38H86.5292C86.6626 12.38 86.7759 12.4267 86.8692 12.52C86.9626 12.6133 87.0092 12.7267 87.0092 12.86V20.96C87.0092 21.9067 86.8559 22.7667 86.5492 23.54C86.2559 24.3133 85.8292 24.9733 85.2692 25.52C84.7092 26.0667 84.0359 26.4933 83.2492 26.8C82.4626 27.0933 81.5892 27.24 80.6292 27.24C79.6692 27.24 78.7959 27.0933 78.0092 26.8C77.2226 26.4933 76.5492 26.0667 75.9892 25.52C75.4292 24.9733 74.9959 24.3133 74.6892 23.54C74.3826 22.7667 74.2292 21.9067 74.2292 20.96V12.86ZM103.731 23.1C103.344 23.7267 102.918 24.3 102.451 24.82C101.984 25.3267 101.458 25.76 100.871 26.12C100.298 26.48 99.6576 26.76 98.9509 26.96C98.2443 27.16 97.4643 27.26 96.6109 27.26C95.5443 27.26 94.5443 27.06 93.6109 26.66C92.6776 26.26 91.8576 25.72 91.1509 25.04C90.4576 24.36 89.9109 23.56 89.5109 22.64C89.1109 21.72 88.9109 20.74 88.9109 19.7C88.9109 18.66 89.1109 17.68 89.5109 16.76C89.9109 15.84 90.4576 15.04 91.1509 14.36C91.8576 13.68 92.6776 13.14 93.6109 12.74C94.5443 12.34 95.5443 12.14 96.6109 12.14C97.4909 12.14 98.2843 12.24 98.9909 12.44C99.6976 12.64 100.338 12.92 100.911 13.28C101.484 13.64 101.998 14.08 102.451 14.6C102.918 15.1067 103.344 15.6667 103.731 16.28C103.798 16.3867 103.811 16.5 103.771 16.62C103.731 16.74 103.651 16.8267 103.531 16.88L100.691 18C100.558 18.0533 100.424 18.0533 100.291 18C100.158 17.9467 100.058 17.8667 99.9909 17.76C99.6043 17.1467 99.1376 16.68 98.5909 16.36C98.0443 16.0267 97.3843 15.86 96.6109 15.86C96.1043 15.86 95.6243 15.9667 95.1709 16.18C94.7309 16.3933 94.3443 16.68 94.0109 17.04C93.6776 17.3867 93.4176 17.7933 93.2309 18.26C93.0443 18.7267 92.9509 19.2067 92.9509 19.7C92.9509 20.2067 93.0443 20.6933 93.2309 21.16C93.4176 21.6133 93.6776 22.0133 94.0109 22.36C94.3443 22.7067 94.7309 22.9867 95.1709 23.2C95.6243 23.4133 96.1043 23.52 96.6109 23.52C97.3443 23.52 98.0043 23.3467 98.5909 23C99.1909 22.64 99.6643 22.18 100.011 21.62C100.078 21.5133 100.171 21.4333 100.291 21.38C100.424 21.3267 100.558 21.3267 100.691 21.38L103.531 22.5C103.651 22.5533 103.731 22.64 103.771 22.76C103.811 22.8667 103.798 22.98 103.731 23.1ZM108.495 27H105.475C105.329 27 105.209 26.9533 105.115 26.86C105.035 26.7667 104.995 26.6533 104.995 26.52V12.86C104.995 12.7267 105.035 12.6133 105.115 12.52C105.209 12.4267 105.329 12.38 105.475 12.38H108.495C108.629 12.38 108.742 12.4267 108.835 12.52C108.929 12.6133 108.975 12.7267 108.975 12.86V26.52C108.975 26.6533 108.929 26.7667 108.835 26.86C108.742 26.9533 108.629 27 108.495 27ZM111.272 26.52V12.84C111.272 12.7067 111.319 12.5933 111.412 12.5C111.506 12.4067 111.619 12.36 111.752 12.36H117.212C119.306 12.36 121.019 12.9733 122.352 14.2C123.072 14.8667 123.619 15.66 123.992 16.58C124.366 17.5 124.552 18.5333 124.552 19.68C124.552 20.8267 124.366 21.8667 123.992 22.8C123.619 23.72 123.072 24.5133 122.352 25.18C121.686 25.78 120.919 26.2333 120.052 26.54C119.199 26.8467 118.252 27 117.212 27H111.752C111.619 27 111.506 26.9533 111.412 26.86C111.319 26.7667 111.272 26.6533 111.272 26.52ZM115.712 23.32H117.212C117.586 23.32 117.972 23.2733 118.372 23.18C118.772 23.0867 119.132 22.9133 119.452 22.66C119.772 22.3933 120.032 22.0267 120.232 21.56C120.446 21.08 120.552 20.46 120.552 19.7C120.552 18.94 120.446 18.3267 120.232 17.86C120.032 17.38 119.766 17.0133 119.432 16.76C119.112 16.4933 118.752 16.3133 118.352 16.22C117.966 16.1267 117.586 16.08 117.212 16.08H115.712C115.579 16.08 115.466 16.1267 115.372 16.22C115.279 16.3133 115.232 16.4267 115.232 16.56V22.84C115.232 22.9733 115.279 23.0867 115.372 23.18C115.466 23.2733 115.579 23.32 115.712 23.32Z" fill="#021122"/>
<defs>
<linearGradient id="paint0_linear_233_45" x1="22.8736" y1="10.1505" x2="37.7805" y2="24.9176" gradientUnits="userSpaceOnUse">
<stop stop-color="#D7E6FA"/>
<stop offset="1" stop-color="#A2C4F0"/>
</linearGradient>
<linearGradient id="paint1_linear_233_45" x1="9.31687" y1="11.2922" x2="22.5036" y2="24.3509" gradientUnits="userSpaceOnUse">
<stop stop-color="#D7E6FA"/>
<stop offset="1" stop-color="#A2C4F0"/>
</linearGradient>
<linearGradient id="paint2_linear_233_45" x1="17.7679" y1="15.6783" x2="23.9632" y2="24.5291" gradientUnits="userSpaceOnUse">
<stop stop-color="#D7E6FA"/>
<stop offset="1" stop-color="#A2C4F0"/>
</linearGradient>
</defs>
</svg>
