<svg xmlns="http://www.w3.org/2000/svg" width="180" height="180" viewBox="0 0 180 180" fill="none">
<g clip-path="url(#clip0_375_8266)">
<path d="M60.5649 54.449L61.2774 55.0715L124.922 118.709C125.757 119.542 126.383 120.561 126.749 121.681C127.116 122.802 127.214 123.993 127.034 125.158C126.854 126.324 126.403 127.43 125.715 128.388C125.028 129.346 124.124 130.128 123.077 130.672L122.207 131.047L44.3199 159.749C29.6799 165.149 15.4224 151.387 19.8699 136.769L20.2449 135.674L48.9399 57.7865C49.3193 56.7548 49.9208 55.819 50.7019 55.0455C51.483 54.272 52.4246 53.6797 53.46 53.3105C54.4955 52.9413 55.5994 52.8042 56.6937 52.9089C57.7879 53.0136 58.8458 53.3576 59.7924 53.9165L60.5649 54.449ZM128.297 87.029C135.13 87.389 144.497 88.829 152.642 93.719C154.294 94.6979 155.507 96.2727 156.032 98.1191C156.557 99.9655 156.354 101.943 155.465 103.644C154.576 105.345 153.068 106.641 151.252 107.264C149.437 107.887 147.451 107.791 145.705 106.994L144.925 106.582C139.81 103.507 133.27 102.307 127.51 102.007C125.137 101.869 122.757 101.879 120.385 102.037L118.015 102.269C116.058 102.521 114.081 101.993 112.512 100.798C110.942 99.6029 109.907 97.8377 109.629 95.8845C109.352 93.9314 109.856 91.9477 111.031 90.3632C112.206 88.7786 113.958 87.7209 115.907 87.419C120.015 86.8884 124.164 86.7553 128.297 87.0215M143.485 66.1265C145.396 66.1305 147.233 66.8638 148.622 68.1767C150.01 69.4896 150.845 71.283 150.957 73.1907C151.068 75.0984 150.446 76.9766 149.219 78.4417C147.992 79.9068 146.253 80.8483 144.355 81.074L143.485 81.1265H138.175C136.264 81.1225 134.427 80.3892 133.038 79.0763C131.649 77.7635 130.814 75.9701 130.703 74.0623C130.592 72.1546 131.214 70.2764 132.441 68.8113C133.667 67.3462 135.407 66.4047 137.305 66.179L138.175 66.1265H143.485ZM119.62 60.374C120.911 61.6655 121.687 63.3837 121.802 65.2064C121.916 67.0291 121.362 68.831 120.242 70.274L119.62 70.979L111.662 78.9365C110.313 80.2816 108.502 81.0626 106.597 81.1207C104.692 81.1789 102.837 80.5099 101.408 79.2496C99.9786 77.9894 99.0826 76.2324 98.9019 74.3355C98.7212 72.4385 99.2693 70.544 100.435 69.0365L101.057 68.3315L109.007 60.3815C109.704 59.6842 110.531 59.131 111.442 58.7536C112.352 58.3761 113.328 58.1819 114.314 58.1819C115.299 58.1819 116.275 58.3761 117.186 58.7536C118.096 59.131 118.923 59.6767 119.62 60.374ZM100.217 20.8865C103.577 30.9815 101.777 42.0365 99.6774 49.7615C98.4153 54.5776 96.682 59.2577 94.5024 63.734C93.6143 65.5143 92.0553 66.8688 90.1685 67.4996C88.2816 68.1305 86.2214 67.9859 84.4412 67.0978C82.6609 66.2096 81.3064 64.6506 80.6756 62.7638C80.0447 60.8769 80.1893 58.8168 81.0774 57.0365C82.8166 53.4407 84.1982 49.6826 85.2024 45.8165C86.9049 39.5765 87.7599 32.804 86.4474 27.254L85.9899 25.634C85.6631 24.6961 85.5258 23.7025 85.586 22.7111C85.6463 21.7196 85.9029 20.75 86.3409 19.8586C86.7789 18.9671 87.3897 18.1715 88.1377 17.518C88.8857 16.8645 89.7561 16.366 90.6983 16.0516C91.6405 15.7372 92.6357 15.6131 93.6263 15.6865C94.6169 15.7599 95.583 16.0293 96.4686 16.4791C97.3542 16.9289 98.1416 17.5501 98.7851 18.3067C99.4287 19.0633 99.9155 19.9402 100.217 20.8865ZM140.83 39.1715C142.236 40.578 143.026 42.4853 143.026 44.474C143.026 46.4627 142.236 48.3701 140.83 49.7765L135.527 55.079C134.836 55.7953 134.008 56.3667 133.093 56.7598C132.178 57.1528 131.194 57.3597 130.198 57.3684C129.202 57.377 128.214 57.1873 127.293 56.8102C126.371 56.4331 125.534 55.8762 124.829 55.172C124.125 54.4678 123.568 53.6304 123.191 52.7087C122.814 51.7869 122.624 50.7994 122.633 49.8035C122.642 48.8077 122.849 47.8235 123.242 46.9085C123.635 45.9935 124.206 45.1659 124.922 44.474L130.225 39.1715C131.631 37.7655 133.539 36.9756 135.527 36.9756C137.516 36.9756 139.423 37.7655 140.83 39.1715Z" fill="url(#paint0_linear_375_8266)"/>
<path d="M29 112.5L42.5 75.5L102 138.5L66 151.5L29 112.5Z" fill="white"/>
</g>
<defs>
<linearGradient id="paint0_linear_375_8266" x1="72" y1="28" x2="119.465" y2="156.578" gradientUnits="userSpaceOnUse">
<stop stop-color="#A2C4F0"/>
<stop offset="1" stop-color="#F1A22B"/>
</linearGradient>
<clipPath id="clip0_375_8266">
<rect width="180" height="180" fill="white"/>
</clipPath>
</defs>
</svg>