<svg xmlns="http://www.w3.org/2000/svg" width="30" height="30" viewBox="0 0 30 30" fill="none">
<path fill-rule="evenodd" clip-rule="evenodd" d="M15 0C6.7155 0 0 6.7155 0 15C0 23.2845 6.7155 30 15 30C23.2845 30 30 23.2845 30 15C30 6.7155 23.2845 0 15 0ZM8.637 14.994C8.91829 15.2752 9.29975 15.4332 9.6975 15.4332C10.0952 15.4332 10.4767 15.2752 10.758 14.994L13.5 12.2505V21.3645C13.5 21.7623 13.658 22.1439 13.9393 22.4252C14.2206 22.7065 14.6022 22.8645 15 22.8645C15.3978 22.8645 15.7794 22.7065 16.0607 22.4252C16.342 22.1439 16.5 21.7623 16.5 21.3645V12.2505L19.2435 14.994C19.525 15.2753 19.9066 15.4332 20.3045 15.4331C20.7024 15.4329 21.084 15.2747 21.3652 14.9932C21.6465 14.7118 21.8044 14.3301 21.8043 13.9322C21.8042 13.5343 21.646 13.1528 21.3645 12.8715L16.0605 7.569C15.7792 7.28779 15.3977 7.12982 15 7.12982C14.6023 7.12982 14.2208 7.28779 13.9395 7.569L8.637 12.87C8.49753 13.0093 8.3869 13.1747 8.31141 13.3568C8.23592 13.5389 8.19707 13.7341 8.19707 13.9313C8.19707 14.1284 8.23592 14.3236 8.31141 14.5057C8.3869 14.6878 8.49753 14.8532 8.637 14.9925V14.994Z" fill="#09244B"/>
</svg>